<svg width="15" height="15" viewBox="0 0 15 15" fill="none" xmlns="http://www.w3.org/2000/svg">
<path d="M11.2497 13.1978L14.6991 1.98708L14.6996 1.98591C14.9424 1.19661 15.064 0.801599 14.9661 0.534858C14.8807 0.302403 14.6975 0.119324 14.465 0.0339867C14.1981 -0.0639871 13.8029 0.057469 13.0129 0.300575L1.80231 3.75002C0.797323 4.05925 0.294788 4.21416 0.128174 4.48083C-0.016321 4.7121 -0.0401553 4.99869 0.0643547 5.25057C0.184862 5.54099 0.65514 5.77633 1.59561 6.24658L5.97528 8.43644C6.11787 8.50772 6.19093 8.54425 6.25413 8.59296C6.31151 8.63719 6.36256 8.68889 6.40679 8.74628C6.45663 8.81094 6.49398 8.88525 6.5686 9.0345L8.7534 13.4042C9.22363 14.3446 9.45935 14.8153 9.74978 14.9358C10.0016 15.0403 10.288 15.0161 10.5192 14.8716C10.7859 14.705 10.9405 14.2024 11.2497 13.1978Z" fill="#EBEBF5"/>
</svg>
