<svg width="19" height="19" viewBox="0 0 19 19" fill="none" xmlns="http://www.w3.org/2000/svg">
<path d="M3.16666 9.06634V13.3001C3.16666 14.1869 3.16666 14.6306 3.33924 14.9693C3.49104 15.2672 3.73308 15.5092 4.031 15.661C4.36937 15.8334 4.81253 15.8334 5.69755 15.8334H13.3024C14.1875 15.8334 14.63 15.8334 14.9684 15.661C15.2663 15.5092 15.5091 15.2672 15.6609 14.9693C15.8333 14.6309 15.8333 14.1879 15.8333 13.3029V9.06634C15.8333 8.64333 15.833 8.4317 15.7815 8.23486C15.7359 8.06042 15.6611 7.89535 15.5599 7.74617C15.4456 7.57784 15.2867 7.43825 14.9684 7.1597L11.1684 3.8347C10.5773 3.31751 10.2818 3.05905 9.94918 2.96069C9.65611 2.87402 9.34373 2.87402 9.05066 2.96069C8.71832 3.05898 8.42321 3.31719 7.83303 3.8336L4.03178 7.1597C3.71342 7.43826 3.55461 7.57784 3.44035 7.74617C3.33908 7.89535 3.26368 8.06042 3.2181 8.23486C3.16666 8.4317 3.16666 8.64332 3.16666 9.06634Z" fill="#EBEBF5"/>
</svg>
