<svg width="15" height="13" viewBox="0 0 15 13" fill="none" xmlns="http://www.w3.org/2000/svg">
<path d="M0 10.4002V5.85016C0 4.94007 0 4.48469 0.181656 4.13708C0.341445 3.83132 0.596227 3.58291 0.909831 3.42711C1.26635 3.25 1.73341 3.25 2.66683 3.25H4.16667C4.16667 1.45507 5.65905 0 7.5 0C9.34095 0 10.8333 1.45507 10.8333 3.25H12.3335C13.2669 3.25 13.733 3.25 14.0895 3.42711C14.4031 3.58291 14.6587 3.83132 14.8185 4.13708C15 4.48435 15 4.93918 15 5.84749V10.4029C15 11.3112 15 11.7654 14.8185 12.1127C14.6587 12.4184 14.4031 12.6673 14.0895 12.8231C13.7333 13 13.2675 13 12.3359 13H2.66409C1.7325 13 1.266 13 0.909831 12.8231C0.596227 12.6673 0.341445 12.4184 0.181656 12.1127C0 11.765 0 11.3102 0 10.4002Z" fill="#EBEBF5" fill-opacity="0.6"/>
</svg>
